<!-- Generated by readme-aura https://github.com/collectioneur/readme-aura -->
<svg width="280" height="150" viewBox="0 0 280 150" xmlns="http://www.w3.org/2000/svg"><mask id="satori_om-id"><rect x="0" y="0" width="280" height="150" fill="#fff"/></mask><defs><pattern id="satori_pattern_id-0_0" x="0" y="0" width="1" height="1" patternUnits="objectBoundingBox"><linearGradient id="satori_biid-0_0" x1="-0.09273721202655223" y1="0.16321749316673226" x2="1.0927372120265524" y2="0.8367825068332677" spreadMethod="pad"><stop offset="0%" stop-color="#FFFFFF"/><stop offset="100%" stop-color="#FDEAF2"/></linearGradient><rect x="0" y="0" width="264" height="150" fill="url(#satori_biid-0_0)"/></pattern><clipPath id="satori_bc-id-0"><path x="8" y="0" width="264" height="150" d="M28,0 h224 a20,20 0 0 1 20,20 v110 a20,20 0 0 1 -20,20 h-224 a20,20 0 0 1 -20,-20 v-110 a20,20 0 0 1 20,-20"/></clipPath></defs><mask id="satori_om-id-0"><rect x="10" y="2" width="260" height="146" fill="#fff"/><path width="264" height="150" fill="none" stroke="#000" stroke-width="4" d="M13.858,5.8580000000000005 A20,20 0 0 1 28,0 h224 a20,20 0 0 1 20,20 v110 a20,20 0 0 1 -20,20 h-224 a20,20 0 0 1 -20,-20 v-110 A20,20 0 0 1 13.858,5.8580000000000005"/></mask><path x="8" y="0" width="264" height="150" fill="url(#satori_pattern_id-0_0)" d="M28,0 h224 a20,20 0 0 1 20,20 v110 a20,20 0 0 1 -20,20 h-224 a20,20 0 0 1 -20,-20 v-110 a20,20 0 0 1 20,-20"/><path width="264" height="150" clip-path="url(#satori_bc-id-0)" fill="none" stroke="#F8C8DC" stroke-width="4" d="M13.858,5.8580000000000005 A20,20 0 0 1 28,0 h224 a20,20 0 0 1 20,20 v110 a20,20 0 0 1 -20,20 h-224 a20,20 0 0 1 -20,-20 v-110 A20,20 0 0 1 13.858,5.8580000000000005"/><mask id="satori_om-id-0-0"><rect x="32" y="24" width="216" height="49" fill="#fff"/></mask><mask id="satori_om-id-0-0-0"><rect x="32" y="24" width="216" height="24" fill="#fff"/></mask><g  ><path fill="#5A2A3A" d="M36.2 36.7L36.2 36.7L36.2 43L33.3 43L33.3 28.4L36.1 28.4L36.1 34.2Q36.5 33.3 37.2 32.7L37.2 32.7Q38.1 31.9 39.5 31.9L39.5 31.9Q40.6 31.9 41.4 32.4Q42.3 32.9 42.7 33.9Q43.2 34.8 43.2 36.1L43.2 36.1L43.2 43L40.3 43L40.3 36.6Q40.3 35.5 39.7 35.0Q39.2 34.4 38.3 34.4L38.3 34.4Q37.7 34.4 37.2 34.7Q36.7 34.9 36.4 35.4Q36.2 35.9 36.2 36.7ZM48.7 43.2L48.7 43.2Q47.7 43.2 46.9 42.8Q46.1 42.5 45.6 41.8Q45.1 41.0 45.1 39.9L45.1 39.9Q45.1 39.0 45.5 38.4Q45.8 37.8 46.4 37.4Q47.0 37.1 47.7 36.9Q48.4 36.7 49.2 36.6L49.2 36.6Q50.2 36.5 50.8 36.4Q51.3 36.3 51.6 36.1Q51.9 36.0 51.9 35.6L51.9 35.6L51.9 35.6Q51.9 35.1 51.7 34.8Q51.5 34.5 51.1 34.3Q50.7 34.1 50.2 34.1L50.2 34.1Q49.6 34.1 49.2 34.3Q48.8 34.5 48.5 34.7Q48.2 35.0 48.1 35.4L48.1 35.4L45.4 34.9Q45.7 34.0 46.4 33.3Q47.0 32.6 48.0 32.3Q49.0 31.9 50.2 31.9L50.2 31.9Q51.1 31.9 51.9 32.2Q52.7 32.4 53.4 32.8Q54.0 33.2 54.4 34.0Q54.8 34.7 54.8 35.6L54.8 35.6L54.8 43L52.0 43L52.0 41.5L51.9 41.5Q51.7 42.0 51.2 42.4Q50.8 42.8 50.2 43.0Q49.6 43.2 48.7 43.2ZM49.6 41.2L49.6 41.2Q50.3 41.2 50.8 40.9Q51.3 40.6 51.6 40.1Q51.9 39.7 51.9 39.1L51.9 39.1L51.9 37.9Q51.8 38.0 51.5 38.1Q51.2 38.2 50.9 38.2Q50.6 38.3 50.3 38.3Q50.0 38.4 49.7 38.4L49.7 38.4Q49.2 38.5 48.8 38.7Q48.4 38.8 48.2 39.1Q47.9 39.4 47.9 39.9L47.9 39.9Q47.9 40.3 48.1 40.6Q48.4 40.9 48.7 41.0Q49.1 41.2 49.6 41.2ZM66.3 43L57.2 43L57.2 41.2L62.6 34.5L62.6 34.4L57.4 34.4L57.4 32.1L66.2 32.1L66.2 34.0L61.1 40.6L61.1 40.6L66.3 40.6L66.3 43ZM73.7 43.2L73.7 43.2Q72.0 43.2 70.8 42.5Q69.6 41.8 69.0 40.6Q68.3 39.3 68.3 37.6L68.3 37.6Q68.3 35.9 69.0 34.6Q69.6 33.4 70.8 32.7Q72.0 31.9 73.6 31.9L73.6 31.9Q74.6 31.9 75.6 32.3Q76.5 32.6 77.2 33.3Q77.9 34.0 78.3 35.0Q78.7 36.1 78.7 37.5L78.7 37.5L78.7 38.3L71.2 38.3Q71.2 39.1 71.5 39.7L71.5 39.7Q71.8 40.4 72.4 40.7Q73.0 41.0 73.7 41.0L73.7 41.0Q74.3 41.0 74.7 40.9Q75.1 40.7 75.4 40.4Q75.7 40.1 75.9 39.7L75.9 39.7L78.5 40.2Q78.3 41.1 77.6 41.8Q76.9 42.5 76.0 42.8Q75.0 43.2 73.7 43.2ZM71.2 36.5L71.2 36.5L75.9 36.5Q75.8 35.9 75.6 35.5L75.6 35.5Q75.4 34.8 74.8 34.5Q74.3 34.2 73.6 34.2L73.6 34.2Q72.8 34.2 72.3 34.5Q71.8 34.9 71.5 35.5L71.5 35.5Q71.3 35.9 71.2 36.5ZM80.7 28.4L83.6 28.4L83.6 43L80.7 43L80.7 28.4ZM89.0 47.1L86.1 47.1L86.1 32.1L89.0 32.1L89.0 33.9L89.1 33.9Q89.3 33.5 89.7 33.0Q90.1 32.6 90.7 32.3Q91.3 31.9 92.2 31.9L92.2 31.9Q93.4 31.9 94.5 32.6Q95.5 33.2 96.1 34.4Q96.7 35.7 96.7 37.6L96.7 37.6Q96.7 39.4 96.1 40.6Q95.5 41.9 94.5 42.5Q93.5 43.2 92.2 43.2L92.2 43.2Q91.3 43.2 90.7 42.9Q90.1 42.6 89.7 42.1Q89.3 41.7 89.1 41.3L89.1 41.3L89.0 41.3L89.0 47.1ZM91.3 40.8L91.3 40.8Q92.1 40.8 92.6 40.4Q93.1 40.0 93.4 39.3Q93.7 38.5 93.7 37.6L93.7 37.6Q93.7 36.6 93.4 35.9Q93.1 35.1 92.6 34.7Q92.1 34.3 91.3 34.3L91.3 34.3Q90.6 34.3 90.0 34.7Q89.5 35.1 89.2 35.8Q89.0 36.6 89.0 37.6L89.0 37.6Q89.0 38.5 89.2 39.3Q89.5 40.0 90.0 40.4Q90.6 40.8 91.3 40.8ZM103.6 43.2L103.6 43.2Q102.0 43.2 100.8 42.5Q99.5 41.8 98.9 40.5Q98.3 39.3 98.3 37.6L98.3 37.6Q98.3 35.9 98.9 34.6Q99.5 33.4 100.8 32.7Q102.0 31.9 103.6 31.9L103.6 31.9Q105.2 31.9 106.4 32.7Q107.6 33.4 108.3 34.6Q108.9 35.9 108.9 37.6L108.9 37.6Q108.9 39.3 108.3 40.5Q107.6 41.8 106.4 42.5Q105.2 43.2 103.6 43.2ZM103.6 40.9L103.6 40.9Q104.4 40.9 104.9 40.5Q105.4 40.0 105.7 39.3Q106.0 38.5 106.0 37.6L106.0 37.6Q106.0 36.6 105.7 35.9Q105.4 35.1 104.9 34.7Q104.4 34.3 103.6 34.3L103.6 34.3Q102.8 34.3 102.3 34.7Q101.8 35.1 101.5 35.9Q101.2 36.6 101.2 37.6L101.2 37.6Q101.2 38.5 101.5 39.3Q101.8 40.0 102.3 40.5Q102.8 40.9 103.6 40.9ZM113.9 43L111.0 43L111.0 32.1L113.8 32.1L113.8 34.0L113.9 34.0Q114.2 33.0 114.9 32.5Q115.6 31.9 116.6 31.9L116.6 31.9Q116.8 31.9 117.0 32.0Q117.3 32.0 117.5 32.0L117.5 32.0L117.5 34.7Q117.3 34.6 116.9 34.5Q116.6 34.5 116.2 34.5L116.2 34.5Q115.6 34.5 115.0 34.8Q114.5 35.1 114.2 35.6Q113.9 36.1 113.9 36.8L113.9 36.8L113.9 43ZM122.5 32.1L124.5 32.1L124.5 34.3L122.5 34.3L122.5 39.8Q122.5 40.3 122.7 40.6Q123.0 40.8 123.5 40.8L123.5 40.8Q123.7 40.8 124.0 40.8Q124.3 40.7 124.4 40.7L124.4 40.7L124.8 42.9Q124.4 43.0 123.9 43.1Q123.4 43.2 122.9 43.2L122.9 43.2Q121.3 43.2 120.4 42.4Q119.6 41.6 119.6 40.1L119.6 40.1L119.6 34.3L118.1 34.3L118.1 32.1L119.6 32.1L119.6 29.5L122.5 29.5L122.5 32.1ZM130.2 32.1L132.5 32.1L132.5 34.3L130.2 34.3L130.2 43L127.3 43L127.3 34.3L125.4 34.3L125.4 32.1L127.3 32.1L127.3 31.2Q127.3 30.1 127.8 29.3Q128.2 28.5 129.0 28.2Q129.8 27.8 130.9 27.8L130.9 27.8Q131.6 27.8 132.1 27.9Q132.7 28.0 133.0 28.1L133.0 28.1L132.4 30.3Q132.2 30.2 132.0 30.2Q131.7 30.1 131.5 30.1L131.5 30.1Q130.8 30.1 130.5 30.4Q130.2 30.8 130.2 31.3L130.2 31.3L130.2 32.1ZM139.3 43.2L139.3 43.2Q137.6 43.2 136.4 42.5Q135.2 41.8 134.6 40.5Q133.9 39.3 133.9 37.6L133.9 37.6Q133.9 35.9 134.6 34.6Q135.2 33.4 136.4 32.7Q137.6 31.9 139.3 31.9L139.3 31.9Q140.9 31.9 142.1 32.7Q143.3 33.4 144.0 34.6Q144.6 35.9 144.6 37.6L144.6 37.6Q144.6 39.3 144.0 40.5Q143.3 41.8 142.1 42.5Q140.9 43.2 139.3 43.2ZM139.3 40.9L139.3 40.9Q140.1 40.9 140.6 40.5Q141.1 40.0 141.4 39.3Q141.6 38.5 141.6 37.6L141.6 37.6Q141.6 36.6 141.4 35.9Q141.1 35.1 140.6 34.7Q140.1 34.3 139.3 34.3L139.3 34.3Q138.5 34.3 138.0 34.7Q137.5 35.1 137.2 35.9Q136.9 36.6 136.9 37.6L136.9 37.6Q136.9 38.5 137.2 39.3Q137.5 40.0 138.0 40.5Q138.5 40.9 139.3 40.9ZM146.7 28.4L149.6 28.4L149.6 43L146.7 43L146.7 28.4ZM155.0 43L152.1 43L152.1 32.1L155.0 32.1L155.0 43ZM153.6 30.7L153.6 30.7Q152.9 30.7 152.4 30.2Q152.0 29.8 152.0 29.2L152.0 29.2Q152.0 28.5 152.4 28.1Q152.9 27.6 153.6 27.6L153.6 27.6Q154.2 27.6 154.7 28.1Q155.2 28.5 155.2 29.2L155.2 29.2Q155.2 29.8 154.7 30.2Q154.2 30.7 153.6 30.7ZM162.4 43.2L162.4 43.2Q160.8 43.2 159.5 42.5Q158.3 41.8 157.7 40.5Q157.0 39.3 157.0 37.6L157.0 37.6Q157.0 35.9 157.7 34.6Q158.3 33.4 159.5 32.7Q160.8 31.9 162.4 31.9L162.4 31.9Q164.0 31.9 165.2 32.7Q166.4 33.4 167.1 34.6Q167.7 35.9 167.7 37.6L167.7 37.6Q167.7 39.3 167.1 40.5Q166.4 41.8 165.2 42.5Q164.0 43.2 162.4 43.2ZM162.4 40.9L162.4 40.9Q163.2 40.9 163.7 40.5Q164.2 40.0 164.5 39.3Q164.8 38.5 164.8 37.6L164.8 37.6Q164.8 36.6 164.5 35.9Q164.2 35.1 163.7 34.7Q163.2 34.3 162.4 34.3L162.4 34.3Q161.6 34.3 161.1 34.7Q160.6 35.1 160.3 35.9Q160.0 36.6 160.0 37.6L160.0 37.6Q160.0 38.5 160.3 39.3Q160.6 40.0 161.1 40.5Q161.6 40.9 162.4 40.9Z "/></g><mask id="satori_om-id-0-0-1"><rect x="32" y="56" width="216" height="17" fill="#fff"/></mask><g  ><path fill="#8A6478" d="M34.5 70L33.2 70L33.2 59.8L36.7 59.8Q37.9 59.8 38.7 60.2Q39.4 60.7 39.8 61.4Q40.2 62.1 40.2 63.1Q40.2 64.0 39.8 64.7Q39.4 65.4 38.7 65.9Q37.9 66.3 36.7 66.3L36.7 66.3L34.5 66.3L34.5 70ZM34.5 61.0L34.5 65.2L36.7 65.2Q37.5 65.2 38.0 64.9Q38.5 64.6 38.7 64.1Q38.9 63.7 38.9 63.1Q38.9 62.5 38.7 62.0Q38.5 61.5 38.0 61.2Q37.5 61.0 36.6 61.0L36.6 61.0L34.5 61.0ZM45.1 70.2L45.1 70.2Q44.1 70.2 43.3 69.7Q42.5 69.2 42.1 68.3Q41.7 67.4 41.7 66.2L41.7 66.2Q41.7 65.0 42.1 64.1Q42.5 63.2 43.3 62.8Q44.1 62.3 45.1 62.3L45.1 62.3Q46.2 62.3 47.0 62.8Q47.8 63.2 48.2 64.1Q48.6 65.0 48.6 66.2L48.6 66.2Q48.6 67.4 48.2 68.3Q47.8 69.2 47.0 69.7Q46.2 70.2 45.1 70.2ZM45.1 69.1L45.1 69.1Q45.9 69.1 46.4 68.7Q46.9 68.3 47.1 67.6Q47.4 67.0 47.4 66.2L47.4 66.2Q47.4 65.5 47.1 64.8Q46.9 64.2 46.4 63.8Q45.9 63.4 45.1 63.4L45.1 63.4Q44.4 63.4 43.9 63.8Q43.4 64.2 43.1 64.8Q42.9 65.5 42.9 66.2L42.9 66.2Q42.9 67.0 43.1 67.6Q43.4 68.3 43.9 68.7Q44.4 69.1 45.1 69.1ZM51.6 70L50.4 70L50.4 62.4L51.6 62.4L51.6 63.5L51.7 63.5Q51.9 63.0 52.4 62.6Q53.0 62.2 53.7 62.2L53.7 62.2Q53.8 62.2 54.0 62.3Q54.2 62.3 54.3 62.3L54.3 62.3L54.3 63.5Q54.2 63.5 54.0 63.5Q53.8 63.4 53.6 63.4L53.6 63.4Q53.0 63.4 52.6 63.7Q52.1 63.9 51.9 64.3Q51.6 64.7 51.6 65.2L51.6 65.2L51.6 70ZM57.1 62.4L58.7 62.4L58.7 63.4L57.1 63.4L57.1 68.0Q57.1 68.5 57.3 68.8Q57.5 69.0 58.0 69.0L58.0 69.0Q58.1 69.0 58.3 69.0Q58.5 68.9 58.7 68.9L58.7 68.9L58.9 70.0Q58.7 70.0 58.5 70.1Q58.2 70.1 58.0 70.1L58.0 70.1Q57.0 70.1 56.4 69.6Q55.9 69.0 55.9 68.1L55.9 68.1L55.9 63.4L54.7 63.4L54.7 62.4L55.9 62.4L55.9 60.5L57.1 60.5L57.1 62.4ZM62.1 62.4L63.8 62.4L63.8 63.4L62.1 63.4L62.1 70L60.8 70L60.8 63.4L59.3 63.4L59.3 62.4L60.8 62.4L60.8 61.3Q60.8 60.7 61.1 60.2Q61.4 59.8 61.9 59.6Q62.4 59.3 63.0 59.3L63.0 59.3Q63.4 59.3 63.7 59.4Q64.0 59.5 64.1 59.5L64.1 59.5L63.8 60.6Q63.7 60.6 63.6 60.5Q63.4 60.5 63.1 60.5L63.1 60.5Q62.6 60.5 62.3 60.8Q62.1 61.1 62.1 61.6L62.1 61.6L62.1 62.4ZM68.6 70.2L68.6 70.2Q67.5 70.2 66.7 69.7Q66.0 69.2 65.5 68.3Q65.1 67.4 65.1 66.2L65.1 66.2Q65.1 65.0 65.5 64.1Q66.0 63.2 66.7 62.8Q67.5 62.3 68.6 62.3L68.6 62.3Q69.6 62.3 70.4 62.8Q71.2 63.2 71.6 64.1Q72.1 65.0 72.1 66.2L72.1 66.2Q72.1 67.4 71.6 68.3Q71.2 69.2 70.4 69.7Q69.6 70.2 68.6 70.2ZM68.6 69.1L68.6 69.1Q69.3 69.1 69.8 68.7Q70.3 68.3 70.6 67.6Q70.8 67.0 70.8 66.2L70.8 66.2Q70.8 65.5 70.6 64.8Q70.3 64.2 69.8 63.8Q69.3 63.4 68.6 63.4L68.6 63.4Q67.8 63.4 67.3 63.8Q66.8 64.2 66.6 64.8Q66.3 65.5 66.3 66.2L66.3 66.2Q66.3 67.0 66.6 67.6Q66.8 68.3 67.3 68.7Q67.8 69.1 68.6 69.1ZM73.8 59.8L75.1 59.8L75.1 70L73.8 70L73.8 59.8ZM78.5 70L77.2 70L77.2 62.4L78.5 62.4L78.5 70ZM77.9 61.1L77.9 61.1Q77.5 61.1 77.3 60.9Q77.0 60.6 77.0 60.3L77.0 60.3Q77.0 60.0 77.3 59.7Q77.5 59.5 77.9 59.5L77.9 59.5Q78.2 59.5 78.5 59.7Q78.7 60.0 78.7 60.3L78.7 60.3Q78.7 60.6 78.5 60.9Q78.2 61.1 77.9 61.1ZM83.7 70.2L83.7 70.2Q82.7 70.2 81.9 69.7Q81.1 69.2 80.7 68.3Q80.3 67.4 80.3 66.2L80.3 66.2Q80.3 65.0 80.7 64.1Q81.1 63.2 81.9 62.8Q82.7 62.3 83.7 62.3L83.7 62.3Q84.8 62.3 85.6 62.8Q86.4 63.2 86.8 64.1Q87.2 65.0 87.2 66.2L87.2 66.2Q87.2 67.4 86.8 68.3Q86.4 69.2 85.6 69.7Q84.8 70.2 83.7 70.2ZM83.7 69.1L83.7 69.1Q84.5 69.1 85.0 68.7Q85.5 68.3 85.7 67.6Q86.0 67.0 86.0 66.2L86.0 66.2Q86.0 65.5 85.7 64.8Q85.5 64.2 85.0 63.8Q84.5 63.4 83.7 63.4L83.7 63.4Q83.0 63.4 82.5 63.8Q82.0 64.2 81.7 64.8Q81.5 65.5 81.5 66.2L81.5 66.2Q81.5 67.0 81.7 67.6Q82.0 68.3 82.5 68.7Q83.0 69.1 83.7 69.1Z "/></g><mask id="satori_om-id-0-1"><rect x="32" y="109" width="216" height="17" fill="#fff"/></mask><g  ><path fill="#C2467D" d="M34.5 123L33.2 123L33.2 112.8L34.5 112.8L34.5 117.2L39.9 117.2L39.9 112.8L41.2 112.8L41.2 123L39.9 123L39.9 118.4L34.5 118.4L34.5 123ZM46.3 114.0L43.1 114.0L43.1 112.8L50.8 112.8L50.8 114.0L47.6 114.0L47.6 123L46.3 123L46.3 114.0ZM53.9 123L52.7 123L52.7 112.8L54.5 112.8L57.0 119.2Q57.1 119.5 57.2 119.8Q57.3 120.1 57.5 120.5Q57.6 120.9 57.7 121.3L57.7 121.3Q57.7 121.4 57.8 121.6L57.8 121.6Q57.8 121.5 57.8 121.4L57.8 121.4Q58.0 121.0 58.1 120.6Q58.2 120.2 58.3 119.8Q58.4 119.5 58.5 119.2L58.5 119.2L61.0 112.8L62.9 112.8L62.9 123L61.6 123L61.6 117.2Q61.6 116.9 61.6 116.5Q61.6 116.1 61.6 115.6Q61.6 115.2 61.6 114.7L61.6 114.7Q61.6 114.5 61.6 114.2L61.6 114.2Q61.5 114.5 61.4 114.8L61.4 114.8Q61.3 115.3 61.1 115.7Q61.0 116.2 60.8 116.6Q60.7 116.9 60.6 117.2L60.6 117.2L58.3 123L57.2 123L54.9 117.2Q54.8 116.9 54.7 116.6Q54.5 116.2 54.4 115.8Q54.2 115.3 54.1 114.8L54.1 114.8Q54.0 114.5 53.9 114.2L53.9 114.2Q53.9 114.4 53.9 114.7L53.9 114.7Q53.9 115.1 53.9 115.6Q53.9 116.0 53.9 116.4Q53.9 116.8 53.9 117.2L53.9 117.2L53.9 123ZM71.3 123L65.3 123L65.3 112.8L66.6 112.8L66.6 121.9L71.3 121.9L71.3 123Z "/></g></svg>